<?xml version="1.0" encoding="UTF-8"?>
<svg id="Layer_1" xmlns="http://www.w3.org/2000/svg" version="1.1" viewBox="0 0 734 221.37">
  <!-- Generator: Adobe Illustrator 30.2.1, SVG Export Plug-In . SVG Version: 2.1.1 Build 1)  -->
  <defs>
    <style>
      .st0 {
        fill: #fff;
      }
    </style>
  </defs>
  <g>
    <path d="M581.55,143.67c0,35.72-7.48,65.67-10.96,77.7h163.42s-9.08-51.5-49.38-114.51c-40.3-63.01-95.28-91.64-125.42-106.86h-52.86c62.69,45.93,75.2,97.97,75.2,143.67h0Z"/>
    <path d="M562.08,126.32c0-77.75-52.43-118.07-64.5-126.32h-53.04s12.95,24.84,12.95,51.88c0,13.01-3.18,42.71-27.26,82.7-24.35,40.44-61.07,73.71-74.98,86.79h190.43c8.65-23.23,16.4-54.26,16.4-95.05Z"/>
  </g>
  <g>
    <path class="st0" d="M.11,134.75v-60.6h25.7c2.79,0,5.36.58,7.72,1.75s4.39,2.7,6.1,4.61,3.05,4.07,4.02,6.49,1.45,4.85,1.45,7.3-.46,5.05-1.36,7.47c-.92,2.42-2.19,4.57-3.84,6.44-1.65,1.88-3.64,3.39-5.98,4.53s-4.89,1.71-7.68,1.71h-14.34v20.31H.11ZM11.89,104.11h13.66c2.16,0,3.97-.88,5.42-2.64,1.46-1.77,2.18-4.15,2.18-7.17,0-1.54-.23-2.92-.68-4.14-.46-1.22-1.06-2.26-1.8-3.11-.74-.86-1.61-1.49-2.6-1.92-1-.43-2.01-.64-3.03-.64h-13.15v19.63h0Z"/>
    <path class="st0" d="M78.8,99.93c-3.47.06-6.57.73-9.3,2.01s-4.69,3.2-5.89,5.76v27.06h-11.44v-44.73h10.49v9.56c.79-1.54,1.74-2.92,2.82-4.14s2.25-2.29,3.5-3.2c1.25-.91,2.52-1.6,3.8-2.09,1.28-.48,2.52-.72,3.71-.72h1.41c.31,0,.61.03.9.08v10.41h0Z"/>
    <path class="st0" d="M103.73,135.61c-3.59,0-6.83-.61-9.73-1.83s-5.38-2.89-7.42-4.99c-2.05-2.1-3.63-4.55-4.74-7.34-1.11-2.79-1.66-5.72-1.66-8.79s.54-6.19,1.62-9.01,2.65-5.29,4.69-7.43c2.05-2.13,4.54-3.83,7.47-5.08s6.22-1.88,9.86-1.88,6.9.62,9.77,1.88c2.88,1.25,5.32,2.93,7.34,5.03,2.02,2.11,3.56,4.55,4.61,7.34,1.06,2.79,1.58,5.69,1.58,8.7,0,.74-.01,1.45-.04,2.14-.03.68-.1,1.25-.21,1.7h-34.57c.17,1.76.6,3.33,1.28,4.7s1.57,2.53,2.65,3.5c1.08.96,2.31,1.7,3.67,2.22,1.36.51,2.78.77,4.27.77,2.27,0,4.42-.55,6.45-1.66,2.02-1.11,3.39-2.57,4.14-4.4l9.81,2.73c-1.65,3.42-4.28,6.22-7.9,8.41-3.61,2.19-7.92,3.29-12.93,3.29h0ZM115.34,108.64c-.28-3.36-1.53-6.05-3.71-8.07-2.19-2.02-4.85-3.03-7.98-3.03-1.54,0-2.98.27-4.31.81-1.34.54-2.52,1.3-3.54,2.27-1.02.97-1.87,2.13-2.52,3.5-.65,1.37-1.04,2.88-1.15,4.53h23.22-.01Z"/>
    <path class="st0" d="M203.6,134.75h-11.44v-25.1c0-3.58-.61-6.2-1.83-7.85s-2.92-2.48-5.08-2.48c-2.28,0-4.42.87-6.4,2.6-1.99,1.74-3.41,4-4.27,6.79v26.03h-11.44v-25.1c0-3.58-.61-6.2-1.83-7.85-1.23-1.65-2.92-2.48-5.08-2.48s-4.34.85-6.35,2.56c-2.02,1.71-3.46,3.95-4.31,6.74v26.12h-11.44v-44.73h10.32v8.28c1.65-2.9,3.91-5.13,6.79-6.7,2.88-1.57,6.16-2.35,9.85-2.35s6.66.91,8.71,2.73c2.04,1.82,3.36,4.07,3.93,6.74,1.82-3.07,4.12-5.42,6.91-7.04,2.79-1.62,5.98-2.43,9.56-2.43,2.73,0,4.98.51,6.75,1.53,1.76,1.03,3.12,2.36,4.1,4.02.96,1.65,1.63,3.53,2,5.63.37,2.11.55,4.24.55,6.4v27.91h0v.03Z"/>
    <path class="st0" d="M213.58,83.8v-11.35h11.44v11.35h-11.44ZM213.58,134.75v-44.73h11.44v44.73h-11.44Z"/>
    <path class="st0" d="M249.01,135.61c-4.61,0-8.11-1.48-10.5-4.44s-3.58-7.34-3.58-13.15v-28h11.44v25.52c0,6.89,2.48,10.33,7.43,10.33,2.22,0,4.37-.67,6.45-2.01,2.07-1.33,3.77-3.37,5.08-6.1v-27.74h11.44v31.58c0,1.2.21,2.05.64,2.56.43.51,1.13.8,2.1.85v9.73c-1.14.23-2.1.37-2.86.43-.77.06-1.46.08-2.09.08-2.05,0-3.71-.47-5-1.41-1.28-.94-2.03-2.23-2.26-3.88l-.26-3.59c-1.99,3.07-4.56,5.38-7.68,6.91-3.13,1.54-6.58,2.31-10.33,2.31l-.02.02Z"/>
    <path class="st0" d="M357.57,134.75h-11.44v-25.1c0-3.58-.61-6.2-1.83-7.85s-2.92-2.48-5.08-2.48c-2.28,0-4.42.87-6.4,2.6-1.99,1.74-3.42,4-4.27,6.79v26.03h-11.44v-25.1c0-3.58-.61-6.2-1.83-7.85-1.23-1.65-2.92-2.48-5.08-2.48s-4.34.85-6.36,2.56-3.46,3.95-4.31,6.74v26.12h-11.44v-44.73h10.32v8.28c1.65-2.9,3.91-5.13,6.79-6.7s6.16-2.35,9.86-2.35,6.66.91,8.71,2.73,3.36,4.07,3.93,6.74c1.82-3.07,4.12-5.42,6.91-7.04s5.98-2.43,9.56-2.43c2.73,0,4.98.51,6.75,1.53,1.76,1.03,3.12,2.36,4.1,4.02.96,1.65,1.63,3.53,2,5.63.37,2.11.55,4.24.55,6.4v27.91h0v.03Z"/>
  </g>
  <path class="st0" d="M24.39.26h8.47l24.21,61.4h-10.2l-6.48-16.69h-23.69l-6.4,16.69H0L24.39.26ZM38.48,37.79l-9.86-26.37-10.2,26.37h20.07,0Z"/>
  <g>
    <path class="st0" d="M62.4,35.19h3.96v21.02c0,.7.18,1.25.55,1.65.36.4.86.6,1.51.6.26,0,.57-.05.92-.15s.68-.21.99-.33l.57,3.12c-.57.27-1.26.48-2.05.64s-1.51.24-2.13.24c-1.37,0-2.43-.38-3.19-1.12-.75-.75-1.14-1.82-1.14-3.2v-22.48h0Z"/>
    <path class="st0" d="M85.86,62.06c-1.44,0-2.75-.34-3.91-1.03s-2.08-1.62-2.76-2.78v3.45h-3.49v-26.5h3.96v11.11c.75-1.21,1.68-2.17,2.79-2.87,1.12-.7,2.43-1.05,3.95-1.05,1.25,0,2.39.27,3.42.82,1.03.54,1.92,1.27,2.65,2.18.73.9,1.3,1.96,1.69,3.16.4,1.2.6,2.45.6,3.76s-.23,2.63-.68,3.81c-.46,1.19-1.08,2.22-1.88,3.1-.79.88-1.74,1.58-2.83,2.09-1.09.51-2.26.76-3.51.76h0ZM84.82,58.64c.86,0,1.65-.18,2.38-.52.72-.35,1.34-.82,1.85-1.4.52-.58.92-1.25,1.21-2.02.28-.76.43-1.57.43-2.41s-.14-1.66-.42-2.45-.66-1.48-1.15-2.07-1.08-1.07-1.77-1.43c-.68-.37-1.43-.55-2.25-.55-1.22,0-2.31.4-3.26,1.2-.95.8-1.68,1.76-2.18,2.9v5.01c.14.56.4,1.06.75,1.51.36.45.78.84,1.26,1.18s.99.6,1.55.78c.55.18,1.09.27,1.59.27h.01Z"/>
    <path class="st0" d="M109.35,62.06c-1.46,0-2.8-.26-4-.78s-2.23-1.23-3.08-2.12-1.51-1.93-1.98-3.12-.7-2.44-.7-3.77.23-2.6.7-3.79c.47-1.2,1.13-2.25,1.98-3.16s1.88-1.62,3.08-2.14c1.2-.52,2.55-.78,4.03-.78s2.8.27,3.98.8c1.19.53,2.21,1.24,3.05,2.12.84.88,1.48,1.91,1.93,3.09.44,1.18.66,2.4.66,3.69,0,.29,0,.56-.04.82-.02.25-.04.46-.07.63h-15.1c.07.85.27,1.61.6,2.29.32.68.74,1.26,1.26,1.76.52.5,1.11.88,1.77,1.14.66.27,1.35.4,2.07.4.52,0,1.05-.07,1.56-.2.52-.13.99-.33,1.43-.58.43-.26.82-.56,1.15-.93.34-.36.6-.76.79-1.2l3.39.98c-.65,1.43-1.73,2.6-3.22,3.5-1.5.91-3.25,1.36-5.25,1.36h0ZM115.08,50.76c-.07-.8-.27-1.54-.59-2.21-.33-.68-.75-1.25-1.25-1.72s-1.09-.84-1.76-1.11c-.67-.27-1.38-.4-2.13-.4s-1.44.13-2.1.4c-.67.27-1.25.64-1.75,1.11s-.91,1.05-1.22,1.72c-.31.68-.5,1.42-.57,2.21h11.38-.01Z"/>
    <path class="st0" d="M135.33,46.15c-1.53.05-2.9.41-4.09,1.07-1.19.67-2.04,1.62-2.54,2.85v11.62h-3.96v-18.99h3.68v4.25c.65-1.31,1.49-2.35,2.54-3.14,1.04-.79,2.17-1.22,3.37-1.29h.6c.16,0,.29,0,.41.04v3.59h-.01Z"/>
    <path class="st0" d="M151.18,60.71c-.5.24-1.2.51-2.09.82-.9.3-1.84.46-2.85.46-.62,0-1.21-.09-1.77-.26-.55-.17-1.04-.42-1.46-.76-.42-.34-.74-.78-.99-1.32-.24-.54-.36-1.2-.36-1.98v-11.88h-2.49v-3.09h2.49v-6.24h3.96v6.24h4.11v3.09h-4.11v10.6c.05.68.26,1.17.63,1.47.38.3.84.45,1.39.45s1.08-.1,1.58-.29.87-.35,1.12-.47l.83,3.16h.01Z"/>
    <path class="st0" d="M161.41,62.06c-.92,0-1.76-.15-2.54-.46-.78-.3-1.45-.72-2.02-1.25-.56-.53-1.01-1.16-1.34-1.89-.32-.73-.48-1.51-.48-2.36,0-.9.19-1.71.57-2.43.38-.73.93-1.36,1.64-1.89s1.55-.94,2.52-1.24,2.05-.44,3.22-.44c.89,0,1.77.08,2.63.24.87.16,1.64.37,2.34.63v-1.31c0-1.41-.4-2.5-1.19-3.29-.79-.79-1.93-1.18-3.42-1.18-1.01,0-2,.18-2.98.56s-1.97.91-3,1.62l-1.23-2.54c2.43-1.64,4.95-2.47,7.57-2.47s4.61.66,6.05,1.99,2.17,3.24,2.17,5.74v6.86c0,.85.35,1.29,1.04,1.31v3.41c-.38.07-.72.12-.99.15-.27.02-.55.04-.81.04-.77,0-1.36-.19-1.78-.58-.42-.38-.68-.88-.77-1.49l-.11-1.2c-.85,1.11-1.88,1.97-3.12,2.56-1.23.6-2.56.89-3.98.89v.02ZM162.49,59.12c.97,0,1.87-.18,2.72-.52.85-.35,1.52-.84,2-1.47.5-.43.76-.9.76-1.38v-2.51c-.67-.27-1.39-.47-2.14-.62-.76-.15-1.5-.22-2.21-.22-1.42,0-2.58.31-3.48.92-.9.62-1.35,1.43-1.35,2.45,0,.94.35,1.74,1.04,2.38s1.58.96,2.66.96h0Z"/>
  </g>
  <path class="st0" d="M.6,174.83c0-3.64.65-7.27,1.97-10.88,1.31-3.61,3.22-6.86,5.76-9.73,2.54-2.88,5.62-5.19,9.26-6.96,3.64-1.76,7.77-2.65,12.38-2.65,5.52,0,10.24,1.23,14.17,3.67,3.93,2.45,6.89,5.63,8.88,9.56l-7.5,5.03c-.86-1.82-1.88-3.35-3.07-4.61-1.2-1.25-2.51-2.25-3.93-2.99-1.43-.74-2.9-1.26-4.44-1.58-1.54-.31-3.02-.47-4.44-.47-3.18,0-5.97.64-8.36,1.92s-4.39,2.98-6.01,5.08c-1.63,2.11-2.85,4.47-3.67,7.08-.82,2.62-1.24,5.24-1.24,7.85,0,2.96.48,5.78,1.45,8.45s2.32,5.03,4.05,7.08c1.73,2.05,3.8,3.68,6.18,4.91,2.39,1.23,5.01,1.84,7.86,1.84,1.48,0,3-.19,4.57-.55,1.56-.37,3.07-.97,4.52-1.79,1.45-.83,2.78-1.86,4.01-3.12,1.22-1.25,2.23-2.76,3.03-4.52l7.94,4.52c-.97,2.27-2.34,4.28-4.1,6.02-1.77,1.73-3.76,3.2-5.98,4.39-2.21,1.2-4.57,2.11-7.04,2.73s-4.91.94-7.3.94c-4.27,0-8.17-.91-11.69-2.73-3.53-1.82-6.57-4.2-9.13-7.13-2.56-2.93-4.55-6.26-5.97-9.99-1.43-3.73-2.14-7.53-2.14-11.4l-.02.03Z"/>
  <g>
    <path class="st0" d="M79.97,207.06c-2.35,0-4.51-.46-6.5-1.37-1.98-.92-3.7-2.17-5.15-3.75-1.45-1.58-2.58-3.42-3.39-5.51s-1.22-4.29-1.22-6.59.42-4.57,1.25-6.66,1.97-3.93,3.43-5.51c1.45-1.58,3.17-2.83,5.15-3.74,1.98-.92,4.13-1.38,6.43-1.38s4.44.46,6.4,1.38,3.68,2.17,5.15,3.74c1.47,1.58,2.62,3.42,3.46,5.51.83,2.09,1.25,4.31,1.25,6.66s-.42,4.5-1.25,6.59-1.98,3.93-3.43,5.51-3.17,2.83-5.15,3.75-4.13,1.37-6.43,1.37ZM66.92,189.97c0,1.96.34,3.81,1.02,5.54s1.61,3.23,2.79,4.51c1.17,1.28,2.55,2.29,4.13,3.04,1.58.75,3.26,1.12,5.05,1.12s3.48-.37,5.06-1.12c1.58-.75,2.96-1.78,4.16-3.1,1.19-1.32,2.13-2.85,2.82-4.58.68-1.73,1.03-3.6,1.03-5.6s-.34-3.81-1.03-5.54-1.62-3.24-2.82-4.54c-1.2-1.3-2.57-2.34-4.13-3.11s-3.23-1.15-5.03-1.15-3.48.38-5.05,1.15c-1.58.77-2.96,1.81-4.13,3.14-1.18,1.32-2.11,2.87-2.82,4.64-.7,1.77-1.06,3.64-1.06,5.6h.01Z"/>
    <path class="st0" d="M122.99,207.06c-1.53,0-2.96-.27-4.29-.8-1.32-.53-2.49-1.26-3.49-2.18s-1.78-2.01-2.34-3.27c-.56-1.26-.83-2.61-.83-4.07s.34-2.77,1.03-3.97c.68-1.19,1.63-2.23,2.85-3.1,1.22-.87,2.68-1.56,4.38-2.05,1.71-.49,3.59-.74,5.63-.74,1.79,0,3.59.16,5.41.48,1.81.32,3.44.76,4.9,1.31v-3.26c0-3.16-.9-5.67-2.69-7.52-1.79-1.86-4.23-2.78-7.3-2.78-1.62,0-3.34.34-5.15,1.02-1.82.69-3.66,1.67-5.54,2.95l-1.22-2.18c4.27-2.9,8.32-4.36,12.16-4.36s7.17,1.16,9.48,3.49,3.46,5.54,3.46,9.64v16.26c0,1.07.47,1.6,1.41,1.6v2.88c-.21.04-.44.07-.67.1s-.44.03-.61.03c-.85,0-1.54-.29-2.05-.86-.51-.58-.81-1.27-.9-2.08v-2.76c-1.54,2.01-3.5,3.54-5.89,4.61-2.39,1.06-4.97,1.6-7.75,1.6h.01ZM123.63,204.5c2.48,0,4.75-.47,6.82-1.41,2.07-.94,3.66-2.18,4.77-3.71.68-.9,1.03-1.75,1.03-2.56v-5.89c-1.54-.6-3.14-1.04-4.8-1.34s-3.39-.45-5.19-.45c-1.66,0-3.18.18-4.54.54-1.37.36-2.54.86-3.52,1.51-.98.64-1.74,1.42-2.27,2.34s-.8,1.93-.8,3.04.21,2.15.64,3.14c.43.98,1.02,1.82,1.79,2.53.77.7,1.67,1.26,2.72,1.67,1.05.4,2.16.61,3.36.61v-.02Z"/>
    <path class="st0" d="M174.65,204.82c-.17.08-.46.25-.87.48-.4.24-.92.46-1.53.67-.62.21-1.31.4-2.08.58-.77.17-1.6.26-2.5.26s-1.74-.13-2.53-.38c-.79-.26-1.48-.64-2.08-1.15s-1.07-1.13-1.41-1.85c-.34-.73-.51-1.58-.51-2.56v-25.09h-4.67v-2.62h4.67v-11.4h3.2v11.4h7.74v2.62h-7.74v24.33c0,1.24.43,2.17,1.28,2.78.85.62,1.81.93,2.88.93,1.32,0,2.46-.22,3.42-.67.96-.45,1.55-.73,1.76-.86l.96,2.56v-.03Z"/>
    <path class="st0" d="M191.16,165.58v-5.89h3.2v5.89h-3.2ZM191.16,206.42v-33.29h3.2v33.29h-3.2Z"/>
    <path class="st0" d="M242.5,206.42h-3.2v-18.56c0-4.31-.61-7.45-1.83-9.41-1.21-1.96-3.15-2.94-5.79-2.94-1.41,0-2.8.26-4.19.77-1.39.51-2.68,1.24-3.87,2.18-1.2.94-2.24,2.04-3.14,3.3-.89,1.26-1.56,2.61-1.98,4.06v20.61h-3.2v-33.29h3.01v7.94c.68-1.28,1.53-2.44,2.53-3.49s2.13-1.94,3.39-2.69,2.59-1.32,4-1.73c1.41-.4,2.86-.61,4.35-.61,3.63,0,6.19,1.27,7.68,3.81,1.49,2.54,2.24,6.18,2.24,10.92v19.14h0Z"/>
    <path class="st0" d="M276.49,206.93c-2.3,0-4.42-.48-6.34-1.44-1.92-.96-3.58-2.24-4.96-3.84-1.39-1.6-2.48-3.43-3.26-5.48-.79-2.05-1.19-4.16-1.19-6.34s.37-4.44,1.12-6.53,1.8-3.94,3.17-5.54c1.37-1.6,3-2.87,4.9-3.81s4-1.41,6.3-1.41c2.9,0,5.43.76,7.59,2.27,2.15,1.51,3.98,3.36,5.47,5.53v-7.23h2.95v33.92c0,2.26-.43,4.24-1.28,5.95-.85,1.71-1.99,3.13-3.43,4.26-1.43,1.13-3.09,1.98-4.99,2.56s-3.89.86-5.98.86c-1.92,0-3.65-.18-5.18-.54-1.54-.36-2.89-.88-4.07-1.54-1.17-.66-2.22-1.47-3.14-2.43-.92-.96-1.72-2.02-2.4-3.17l2.18-1.47c1.32,2.26,3.11,3.91,5.38,4.96,2.26,1.04,4.67,1.57,7.23,1.57,1.71,0,3.32-.24,4.83-.71,1.52-.47,2.84-1.16,3.97-2.08s2.03-2.06,2.69-3.42c.66-1.37.99-2.97.99-4.8v-7.3c-1.37,2.18-3.18,3.92-5.44,5.21-2.26,1.3-4.63,1.95-7.11,1.95v.04ZM277.26,204.18c1.41,0,2.79-.27,4.13-.8,1.35-.54,2.56-1.23,3.65-2.08s1.98-1.81,2.69-2.88c.7-1.06,1.14-2.13,1.31-3.2v-10.95c-.51-1.28-1.2-2.46-2.05-3.55-.85-1.09-1.83-2.02-2.91-2.78-1.09-.77-2.27-1.38-3.52-1.83-1.26-.45-2.53-.67-3.81-.67-2.01,0-3.8.43-5.38,1.28-1.58.86-2.92,1.97-4,3.33-1.09,1.37-1.92,2.91-2.5,4.64s-.86,3.47-.86,5.22c0,1.92.34,3.73,1.02,5.44s1.62,3.22,2.82,4.54c1.19,1.32,2.6,2.37,4.23,3.14,1.62.77,3.35,1.15,5.18,1.15h0Z"/>
    <path class="st0" d="M323.67,207.06c-2.56,0-5.02-.43-7.36-1.28-2.35-.86-4.39-2.13-6.15-3.84l1.6-2.18c1.79,1.62,3.65,2.82,5.57,3.58,1.92.77,4.03,1.15,6.34,1.15,2.9,0,5.24-.61,7.01-1.83,1.77-1.21,2.65-2.91,2.65-5.09,0-1.03-.22-1.89-.67-2.6-.45-.7-1.12-1.3-2.02-1.79-.89-.49-2.01-.93-3.33-1.31-1.32-.38-2.86-.79-4.61-1.22-1.88-.43-3.51-.85-4.9-1.28-1.39-.43-2.53-.94-3.43-1.54-.89-.6-1.57-1.32-2.02-2.18-.45-.85-.67-1.94-.67-3.27,0-1.67.32-3.11.96-4.35.64-1.23,1.53-2.26,2.66-3.07,1.13-.81,2.43-1.42,3.9-1.82,1.47-.4,3.04-.61,4.71-.61,2.6,0,4.91.44,6.91,1.31,2.01.88,3.56,1.99,4.67,3.36l-1.79,1.73c-1.11-1.28-2.55-2.24-4.32-2.88-1.77-.64-3.66-.96-5.66-.96-1.24,0-2.4.13-3.49.38-1.09.26-2.04.66-2.85,1.21-.81.56-1.45,1.27-1.92,2.14-.47.88-.71,1.91-.71,3.11,0,.98.16,1.77.48,2.37.32.6.83,1.11,1.54,1.54.71.43,1.61.8,2.72,1.12,1.11.32,2.43.67,3.97,1.06,2.09.51,3.94,1.01,5.57,1.47,1.62.47,2.98,1.04,4.07,1.73,1.09.68,1.92,1.49,2.5,2.43.58.94.87,2.13.87,3.58,0,2.99-1.17,5.36-3.49,7.14s-5.43,2.66-9.31,2.66v.03Z"/>
  </g>
</svg>